<svg width="122" height="12" fill="none" xmlns="http://www.w3.org/2000/svg"><g clip-path="url('#clip0_1_422')" fill="#131416"><path d="M12.337 4.08c0-1.99-1.33-3.798-3.852-3.813C6.788.267 1.697.25 0 .25v11.52h2.019V7.927h5.34l3.121 3.845h2.4v-.147L9.638 7.696c2.034-.445 2.707-2.039 2.707-3.616h-.008ZM2.027 5.968V2.287h6.466c1.268 0 1.833.92 1.833 1.841 0 .92-.55 1.842-1.833 1.842l-6.466-.002ZM26.323.255c-1.682 0-6.757.016-8.438.016v11.504H19.9v-3.39h6.422c5.243 0 5.227-8.135 0-8.135v.005Zm0 6.142H19.9V2.32h6.422c2.567 0 2.582 4.077 0 4.077ZM63.198 5.823c.993-.478 1.391-1.332 1.391-2.22 0-2.308-1.574-3.335-3.684-3.335h-8.47V11.77h8.47c2.215 0 4.004-.82 4.004-3.385 0-.724-.458-2.154-1.71-2.563ZM54.421 2.24h6.482c1.285 0 1.68.887 1.68 1.414 0 .656-.41 1.233-1.68 1.233h-6.48l-.002-2.647Zm6.482 7.512h-6.48V6.792h6.481c.826 0 2.004.541 2.004 1.577 0 1.084-1.17 1.382-2.004 1.382M71.755.268h-2.018v11.505h10.915V9.766h-8.897V.268ZM87.499.268h-2.004v11.505H87.5V.268ZM102.625 8.593a4.311 4.311 0 0 1-.975.78 5.24 5.24 0 0 1-1.274.52c-.503.13-1.02.194-1.537.19a5.678 5.678 0 0 1-2-.328 4.262 4.262 0 0 1-1.45-.891 3.726 3.726 0 0 1-.886-1.313A4.163 4.163 0 0 1 94.204 6a4.21 4.21 0 0 1 .299-1.569c.202-.502.504-.95.885-1.312.426-.396.92-.696 1.456-.883a5.759 5.759 0 0 1 1.997-.32c.493-.002.986.056 1.467.173.427.103.842.258 1.237.461.355.184.684.424.975.711.175.177.334.371.474.581l1.701-1.01a5.562 5.562 0 0 0-.742-.924 6.116 6.116 0 0 0-1.308-1.002 6.7 6.7 0 0 0-1.674-.667 8.222 8.222 0 0 0-2.025-.237 7.931 7.931 0 0 0-2.875.49 6.343 6.343 0 0 0-2.116 1.312 5.577 5.577 0 0 0-1.303 1.892 5.942 5.942 0 0 0-.462 2.302c0 .794.157 1.579.462 2.302a5.576 5.576 0 0 0 1.303 1.893c.62.579 1.339 1.024 2.116 1.31.921.342 1.89.51 2.864.497a8.14 8.14 0 0 0 2.087-.253 6.717 6.717 0 0 0 1.706-.707c.485-.282.93-.635 1.323-1.049.285-.304.537-.642.749-1.009l-1.709-1.006a3.573 3.573 0 0 1-.466.629M43.903.255c-.227 0-.451.047-.66.14-.21.094-.401.23-.562.403a1.87 1.87 0 0 0-.374.602 1.98 1.98 0 0 0-.132.71h3.22v3.971a8.534 8.534 0 0 1-.323 1.552c-.202.502-.505.95-.886 1.313-.426.396-.92.699-1.453.891a4.21 4.21 0 0 1-3.316 0 4.252 4.252 0 0 1-1.453-.891 3.726 3.726 0 0 1-.886-1.313 8.55 8.55 0 0 1-.324-1.552V.255h-1.993V6.08a5.88 5.88 0 0 0 .453 2.303 5.517 5.517 0 0 0 1.303 1.891 6.3 6.3 0 0 0 2.118 1.305 7.372 7.372 0 0 0 4.876 0 6.302 6.302 0 0 0 2.117-1.31c.555-.523 1-1.169 1.303-1.892.302-.724.457-1.51.452-2.303V.255h-3.48ZM114.502 2.161l-4.713 9.61h-2.007L113.384.339V.268h2.977L122 11.77h-2.007l-1.198-2.433h-3.591c-.233 0-.464-.05-.68-.145a1.779 1.779 0 0 1-.576-.414 1.92 1.92 0 0 1-.385-.62 2.022 2.022 0 0 1-.136-.731h4.428l-2.588-5.267h-.765Z"/></g><defs><clipPath id="clip0_1_422"><path fill="#fff" d="M0 0h122v12H0z"/></clipPath></defs></svg>