<svg width="104" height="12" fill="none" xmlns="http://www.w3.org/2000/svg"><g clip-path="url('#clip0_1_336')" fill="#131416"><path d="M4.762 11.815 0 .185h2.44l3.485 8.676L9.43.186h2.439L7.084 11.815H4.762ZM13.97 4.978h7.153a3.746 3.746 0 0 0-1.314-1.99 3.516 3.516 0 0 0-2.24-.779 3.58 3.58 0 0 0-2.31.768 3.73 3.73 0 0 0-1.289 2Zm-.717 5.28a5.79 5.79 0 0 1-1.327-1.937 5.7 5.7 0 0 1-.44-2.296 5.815 5.815 0 0 1 .434-2.301c.299-.731.744-1.396 1.309-1.956a5.718 5.718 0 0 1 1.948-1.33A5.809 5.809 0 0 1 17.507 0a6.17 6.17 0 0 1 4.216 1.593 5.667 5.667 0 0 1 1.395 1.9c.325.723.493 1.504.492 2.293.002.35-.02.698-.069 1.044H13.97c.036.41.153.81.346 1.175.193.365.458.69.78.954a3.6 3.6 0 0 0 2.4.825c.532.019 1.06-.075 1.55-.276.49-.2.931-.503 1.291-.886l2.772.024a6.126 6.126 0 0 1-2.274 2.431 6.106 6.106 0 0 1-3.27.92 5.957 5.957 0 0 1-2.34-.43 5.87 5.87 0 0 1-1.972-1.308ZM25.185 11.815V5.752c0-1.86.457-3.26 1.372-4.2A4.77 4.77 0 0 1 28.21.47a4.841 4.841 0 0 1 1.96-.325h.236v2.213h-.237c-1.77 0-2.654 1.131-2.652 3.394v6.063h-2.332ZM37.342 2.21a3.714 3.714 0 0 0-1.49.261c-.473.189-.9.472-1.254.833A3.869 3.869 0 0 0 33.5 5.998c0 1.003.393 1.968 1.098 2.695.35.359.77.642 1.238.833a3.7 3.7 0 0 0 1.475.271c.5.013.999-.078 1.461-.266.463-.188.88-.469 1.226-.825a3.921 3.921 0 0 0 1.077-2.694c0-1-.385-1.962-1.077-2.695a3.577 3.577 0 0 0-1.225-.827 3.633 3.633 0 0 0-1.462-.267l.031-.014Zm-4.35-.466a6.212 6.212 0 0 1 7.733-.758 6.022 6.022 0 0 1 2.462 3.252 5.909 5.909 0 0 1-.199 4.047 6.052 6.052 0 0 1-2.769 3.004 6.224 6.224 0 0 1-4.081.597 6.145 6.145 0 0 1-3.541-2.08 5.945 5.945 0 0 1-1.392-3.815c-.013-.79.14-1.574.447-2.304a5.793 5.793 0 0 1 1.34-1.943ZM55.453 11.815H52.8l-3.057-4.163-3.056 4.163h-2.676l4.405-6.045L44.365.186h2.631l2.724 3.721L52.492.186h2.632L51.072 5.77l4.38 6.045ZM58.146 11.778v-3.89h-2.123V6.541h2.123v-.414l.048-1.418c.128-1.413.579-2.522 1.352-3.328a4.77 4.77 0 0 1 3.087-1.394v1.421a3.524 3.524 0 0 0-2.024 1.048 3.608 3.608 0 0 0-.912 2.256l-.048 1.418v.414h3.736v1.347h-3.723v3.89l-1.516-.003ZM67.305.189H65.79v11.63h1.516V.188ZM79.22 2.755a4.378 4.378 0 0 0-1.487-1 4.446 4.446 0 0 0-1.772-.327 4.532 4.532 0 0 0-1.78.33 4.465 4.465 0 0 0-1.5.997 4.62 4.62 0 0 0-1.343 3.25 4.62 4.62 0 0 0 1.343 3.25c.422.433.93.776 1.492 1.008a4.513 4.513 0 0 0 1.778.34 4.46 4.46 0 0 0 1.765-.329 4.392 4.392 0 0 0 1.483-.995 4.696 4.696 0 0 0 1.32-3.257 4.696 4.696 0 0 0-1.32-3.257l.021-.01Zm-7.606-1.01a6.212 6.212 0 0 1 7.733-.758 6.023 6.023 0 0 1 2.462 3.251 5.91 5.91 0 0 1-.199 4.047 6.053 6.053 0 0 1-2.769 3.004 6.224 6.224 0 0 1-4.081.597 6.145 6.145 0 0 1-3.541-2.08 5.945 5.945 0 0 1-1.392-3.815c-.013-.79.14-1.574.447-2.304a5.791 5.791 0 0 1 1.34-1.943ZM93.927 2.755a4.377 4.377 0 0 0-1.487-1 4.445 4.445 0 0 0-1.772-.327 4.533 4.533 0 0 0-1.78.33 4.466 4.466 0 0 0-1.5.997 4.62 4.62 0 0 0-1.342 3.25 4.62 4.62 0 0 0 1.343 3.25c.42.433.929.777 1.491 1.008a4.506 4.506 0 0 0 1.778.34c.605.01 1.206-.1 1.764-.329a4.378 4.378 0 0 0 1.482-.995 4.693 4.693 0 0 0 1.32-3.257 4.693 4.693 0 0 0-1.32-3.257l.023-.01Zm-7.602-1.01a6.212 6.212 0 0 1 7.733-.758 6.023 6.023 0 0 1 2.462 3.251 5.91 5.91 0 0 1-.199 4.047 6.053 6.053 0 0 1-2.769 3.004 6.224 6.224 0 0 1-4.081.597 6.145 6.145 0 0 1-3.541-2.08 5.945 5.945 0 0 1-1.392-3.815 5.7 5.7 0 0 1 .446-2.304 5.788 5.788 0 0 1 1.341-1.943ZM98.549 11.815V5.786c0-1.875.438-3.286 1.314-4.233.45-.475.999-.847 1.611-1.092a4.624 4.624 0 0 1 1.929-.326c.115-.002.23.005.343.02v1.421a1.886 1.886 0 0 0-.343-.023 3.05 3.05 0 0 0-1.348.254 2.997 2.997 0 0 0-1.091.817c-.599.711-.899 1.766-.899 3.162v6.029h-1.516ZM102.45 10.521h.257a.413.413 0 0 0 .25-.054.162.162 0 0 0 .05-.062.153.153 0 0 0 .015-.079.174.174 0 0 0-.03-.101.204.204 0 0 0-.09-.067.738.738 0 0 0-.212-.02h-.24v.383Zm-.213.724V9.963h.453c.115-.006.231.006.343.034a.342.342 0 0 1 .226.313.322.322 0 0 1-.026.134.316.316 0 0 1-.077.112.413.413 0 0 1-.274.115c.042.016.08.04.113.07.073.078.137.162.192.253l.161.252h-.257l-.117-.202a.982.982 0 0 0-.223-.3.26.26 0 0 0-.168-.043h-.133v.546h-.213Zm.535-1.657a1.041 1.041 0 0 0-.497.132.917.917 0 0 0-.381.367.974.974 0 0 0-.004.994.941.941 0 0 0 .378.367 1.01 1.01 0 0 0 1.008 0 .941.941 0 0 0 .378-.367.994.994 0 0 0-.004-.994.933.933 0 0 0-.381-.367 1.04 1.04 0 0 0-.476-.132h-.021Zm0-.195c.209 0 .414.053.597.152.192.101.35.254.456.44.105.184.16.39.161.6.001.208-.055.413-.161.593a1.107 1.107 0 0 1-.449.445 1.256 1.256 0 0 1-1.208 0 1.14 1.14 0 0 1-.439-.448 1.182 1.182 0 0 1-.163-.596 1.182 1.182 0 0 1 .619-1.038c.187-.099.396-.15.608-.148h-.021Z"/></g></svg>