<svg width="40" height="40" fill="none" xmlns="http://www.w3.org/2000/svg"><path d="M.5 20C.5 9.23 9.23.5 20 .5S39.5 9.23 39.5 20 30.77 39.5 20 39.5.5 30.77.5 20Z" stroke="#969186"/><path d="M20 17.751a2.25 2.25 0 1 0 0 4.5 2.25 2.25 0 0 0 0-4.5Zm0-1.5a3.75 3.75 0 1 1 0 7.5 3.75 3.75 0 0 1 0-7.5Zm4.875-.188a.938.938 0 1 1-1.875 0 .938.938 0 0 1 1.875 0ZM20 14.002c-1.855 0-2.159.005-3.022.043-.588.028-.982.107-1.348.25-.326.125-.56.276-.81.527a2.169 2.169 0 0 0-.528.81c-.143.367-.222.761-.248 1.348-.04.828-.044 1.118-.044 3.022 0 1.855.005 2.159.043 3.022.028.587.107.982.249 1.348.127.326.277.56.526.81.253.252.488.402.81.527.37.143.765.223 1.35.25.828.039 1.118.043 3.022.043 1.855 0 2.159-.005 3.022-.044.586-.027.982-.106 1.348-.248a2.19 2.19 0 0 0 .81-.526c.252-.253.403-.488.527-.81.143-.37.223-.765.25-1.35.038-.828.043-1.118.043-3.022 0-1.856-.005-2.159-.044-3.022-.027-.586-.106-.982-.248-1.348a2.182 2.182 0 0 0-.528-.81 2.163 2.163 0 0 0-.81-.528c-.367-.143-.762-.221-1.348-.248C22.194 14.005 21.904 14 20 14Zm0-1.5c2.038 0 2.292.008 3.091.045.8.038 1.343.163 1.822.349.494.19.912.448 1.328.864.382.375.677.829.865 1.33.185.477.311 1.022.349 1.82.035.8.045 1.054.045 3.092 0 2.038-.008 2.292-.045 3.091-.037.8-.163 1.343-.349 1.822-.188.5-.483.954-.865 1.328a3.686 3.686 0 0 1-1.328.865c-.478.186-1.023.312-1.822.349-.799.035-1.053.045-3.091.045-2.038 0-2.292-.008-3.091-.045-.8-.037-1.343-.163-1.821-.349a3.668 3.668 0 0 1-1.33-.864 3.679 3.679 0 0 1-.864-1.33c-.186-.477-.312-1.022-.349-1.82-.035-.8-.045-1.054-.045-3.092 0-2.038.008-2.292.045-3.091.037-.8.163-1.343.349-1.822.187-.5.483-.954.864-1.329a3.673 3.673 0 0 1 1.33-.864c.478-.186 1.021-.311 1.82-.349.8-.035 1.054-.045 3.092-.045Z" fill="#BDB8AD"/></svg>