<svg width="87" height="18" fill="none" xmlns="http://www.w3.org/2000/svg"><path d="M19.568.395c1.66 0 2.992.545 3.996 1.637 1.005 1.07 1.507 2.478 1.507 4.225V17h-4.455V6.257c0-.611-.141-1.092-.425-1.44a1.337 1.337 0 0 0-1.114-.558H17.67c-.612 0-1.146.23-1.605.688-.459.437-.742 1.026-.852 1.769V17h-4.454V6.29c0-.611-.142-1.103-.426-1.474A1.337 1.337 0 0 0 9.22 4.26H7.94c-.633 0-1.19.284-1.67.852-.48.568-.786 1.31-.917 2.227V17H.9V.657h4.126v1.9A4.727 4.727 0 0 1 6.533.983c.633-.393 1.266-.59 1.9-.59h1.834a3.8 3.8 0 0 1 2.129.623c.655.415 1.168.993 1.539 1.736.48-.743 1.048-1.321 1.703-1.736.677-.415 1.387-.622 2.129-.622h1.801Zm15.088 16.867c-1.376 0-2.598-.262-3.668-.786a6.071 6.071 0 0 1-2.457-2.293c-.567-.982-.851-2.118-.851-3.406V6.945c0-1.288.294-2.424.884-3.406a6.005 6.005 0 0 1 2.456-2.326C32.09.667 33.313.395 34.69.395h2.947c1.376 0 2.588.272 3.636.818a5.958 5.958 0 0 1 2.49 2.326c.589.982.883 2.118.883 3.406v3.832c0 1.288-.294 2.424-.884 3.406-.59.983-1.42 1.747-2.49 2.293-1.047.524-2.27.786-3.667.786h-2.948Zm2.882-3.832c.808 0 1.452-.273 1.933-.819.48-.568.72-1.3.72-2.194V7.24c0-.896-.24-1.616-.72-2.162-.48-.568-1.114-.851-1.9-.851h-2.817c-.786 0-1.419.283-1.9.851-.48.546-.72 1.266-.72 2.162v3.177c0 .895.24 1.626.72 2.194.481.546 1.103.819 1.867.819h2.817ZM50.88 8.714 44.886.657h4.978l3.603 4.847L57.07.657h4.978l-5.994 8.057L62.244 17h-4.978l-3.8-5.11L49.668 17H44.69l6.19-8.286Zm17.543 8.548c-1.704 0-3.079-.426-4.127-1.277-1.048-.852-1.572-1.976-1.572-3.374V11.4c0-1.375.546-2.478 1.637-3.308 1.092-.851 2.533-1.277 4.324-1.277h1.997c.568 0 1.18.076 1.835.23.655.152 1.255.36 1.801.622V5.962c0-.545-.186-.982-.557-1.31-.349-.349-.819-.524-1.408-.524h-2.817c-.611 0-1.103.142-1.474.426-.371.284-.557.666-.557 1.146h-4.323c0-1.594.579-2.87 1.736-3.832C66.096.886 67.635.395 69.535.395h2.817c1.921 0 3.472.513 4.651 1.539 1.179 1.004 1.768 2.347 1.768 4.028V17h-4.127v-1.965a6.09 6.09 0 0 1-1.932 1.637c-.764.393-1.517.59-2.26.59h-2.03Zm2.358-3.406c.808 0 1.528-.208 2.161-.623a3.55 3.55 0 0 0 1.376-1.67v-.557c-.349-.262-.841-.47-1.474-.622a8.08 8.08 0 0 0-1.965-.23h-2.063c-.524 0-.95.132-1.278.394-.327.262-.491.611-.491 1.048v.851c0 .415.175.754.524 1.016.371.262.852.393 1.441.393h1.769Zm13.297 3.471c-.808 0-1.463-.24-1.966-.72-.48-.502-.72-1.157-.72-1.965s.24-1.452.72-1.933c.503-.502 1.158-.753 1.966-.753s1.452.251 1.932.753c.502.48.753 1.125.753 1.933s-.251 1.463-.753 1.965c-.48.48-1.124.72-1.932.72Z" fill="#161513"/></svg>