<svg width="100" height="240" fill="none" xmlns="http://www.w3.org/2000/svg"><path fill-rule="evenodd" clip-rule="evenodd" d="M128.572 0h-17.143v75.904L82.995 5.527 67.1 11.949l29.17 72.2-55.062-55.063-12.122 12.122 52.775 52.775L13.47 64.102 6.606 79.81l72.367 31.618H0v17.143h78.972L6.606 160.189l6.863 15.709 68.392-29.881-52.775 52.775 12.122 12.121 55.063-55.062L67.1 228.052l15.895 6.421 28.434-70.377V240h17.143v-75.904l28.434 70.377 15.894-6.421-29.17-72.201 55.062 55.062 12.121-12.121-52.775-52.775 68.393 29.881 6.863-15.709-72.366-31.617H240v-17.143h-78.973l72.367-31.618-6.863-15.71-68.393 29.882 52.775-52.775-12.121-12.122L143.73 84.15l29.17-72.2-15.894-6.422-28.434 70.377V0Z" fill="#E94D35"/></svg>