<svg width="40" height="40" fill="none" xmlns="http://www.w3.org/2000/svg"><path d="M.5 20C.5 9.23 9.23.5 20 .5S39.5 9.23 39.5 20 30.77 39.5 20 39.5.5 30.77.5 20Z" stroke="#969186"/><path d="M27.622 15.243a6.29 6.29 0 0 1-1.802.494A3.147 3.147 0 0 0 27.2 14a6.267 6.267 0 0 1-1.992.761 3.137 3.137 0 0 0-5.345 2.86 8.906 8.906 0 0 1-6.464-3.277 3.136 3.136 0 0 0 .97 4.188 3.126 3.126 0 0 1-1.42-.392v.04a3.139 3.139 0 0 0 2.516 3.075 3.16 3.16 0 0 1-1.418.054 3.14 3.14 0 0 0 2.93 2.179 6.296 6.296 0 0 1-4.643 1.299 8.872 8.872 0 0 0 4.808 1.41c5.77 0 8.925-4.78 8.925-8.925 0-.135-.004-.272-.01-.405a6.373 6.373 0 0 0 1.565-1.624Z" fill="#BDB8AD"/></svg>